<svg width="22" height="27" viewBox="0 0 22 27" fill="none" xmlns="http://www.w3.org/2000/svg">
<path d="M15.6549 3.05176e-05C15.7156 3.05176e-05 15.7763 3.05176e-05 15.8405 3.05176e-05C15.9894 1.8399 15.2871 3.21464 14.4337 4.21018C13.5962 5.19885 12.4494 6.15774 10.5947 6.01224C10.471 4.19873 11.1744 2.92594 12.0267 1.93269C12.8172 1.00703 14.2664 0.18333 15.6549 3.05176e-05Z" fill="#FCFCFC"/>
<path d="M21.2696 19.1502C21.2696 19.1685 21.2696 19.1846 21.2696 19.2018C20.7483 20.7804 20.0048 22.1334 19.0975 23.389C18.2692 24.5289 17.2542 26.0629 15.4418 26.0629C13.8757 26.0629 12.8355 25.0559 11.2305 25.0284C9.5327 25.0009 8.59902 25.8704 7.04671 26.0892C6.86914 26.0892 6.69156 26.0892 6.51743 26.0892C5.37754 25.9243 4.45761 25.0215 3.78742 24.2081C1.81122 21.8046 0.284114 18.7 0 14.727C0 14.3375 0 13.9491 0 13.5596C0.12029 10.7162 1.50191 8.4043 3.33834 7.28388C4.30753 6.68816 5.63988 6.18065 7.12346 6.40748C7.75928 6.50601 8.40885 6.72367 8.97822 6.93905C9.51781 7.14641 10.1926 7.51415 10.8318 7.49467C11.2649 7.48207 11.6956 7.25639 12.1321 7.09715C13.4106 6.63546 14.6639 6.10618 16.3159 6.35478C18.3013 6.65494 19.7104 7.53706 20.5811 8.89806C18.9016 9.96692 17.5738 11.5777 17.8006 14.3283C18.0023 16.8269 19.4549 18.2887 21.2696 19.1502Z" fill="#FCFCFC"/>
</svg>
