<svg width="38" height="39" viewBox="0 0 38 39" fill="none" xmlns="http://www.w3.org/2000/svg">
<path d="M5.12918 32.37C5.43585 32.53 5.67585 32.75 5.84918 33.03C6.02251 33.31 6.10918 33.6333 6.10918 34C6.10918 34.5733 5.90585 35.05 5.49918 35.43C5.09251 35.81 4.59585 36 4.00918 36H1.00918V29H3.78918C4.36251 29 4.84585 29.1867 5.23918 29.56C5.63918 29.9267 5.83918 30.3867 5.83918 30.94C5.83918 31.5467 5.60251 32.0233 5.12918 32.37ZM3.78918 30.08H2.15918V31.92H3.78918C4.04251 31.92 4.25585 31.8333 4.42918 31.66C4.60251 31.48 4.68918 31.26 4.68918 31C4.68918 30.74 4.60251 30.5233 4.42918 30.35C4.25585 30.17 4.04251 30.08 3.78918 30.08ZM4.00918 34.92C4.27585 34.92 4.49918 34.8267 4.67918 34.64C4.86585 34.4467 4.95918 34.2133 4.95918 33.94C4.95918 33.6667 4.86585 33.4367 4.67918 33.25C4.49918 33.0567 4.27585 32.96 4.00918 32.96H2.15918V34.92H4.00918ZM8.32269 31.84C8.59603 31.22 9.10936 30.91 9.86269 30.91V32.08C9.44936 32.0533 9.08936 32.1533 8.78269 32.38C8.47603 32.6 8.32269 32.9667 8.32269 33.48V36H7.24269V31H8.32269V31.84ZM12.9863 36.13C12.253 36.13 11.6296 35.8767 11.1163 35.37C10.603 34.8633 10.3463 34.24 10.3463 33.5C10.3463 32.76 10.603 32.1367 11.1163 31.63C11.6296 31.1233 12.253 30.87 12.9863 30.87C13.7263 30.87 14.3496 31.1233 14.8563 31.63C15.3696 32.1367 15.6263 32.76 15.6263 33.5C15.6263 34.24 15.3696 34.8633 14.8563 35.37C14.3496 35.8767 13.7263 36.13 12.9863 36.13ZM11.8763 34.63C12.1763 34.93 12.5463 35.08 12.9863 35.08C13.4263 35.08 13.7963 34.93 14.0963 34.63C14.3963 34.33 14.5463 33.9533 14.5463 33.5C14.5463 33.0467 14.3963 32.67 14.0963 32.37C13.7963 32.07 13.4263 31.92 12.9863 31.92C12.5463 31.92 12.1763 32.07 11.8763 32.37C11.5763 32.67 11.4263 33.0467 11.4263 33.5C11.4263 33.9533 11.5763 34.33 11.8763 34.63ZM22.3675 31H23.5075L21.9375 36H20.8775L19.8375 32.63L18.7875 36H17.7275L16.1575 31H17.2975L18.2675 34.45L19.3175 31H20.3475L21.3875 34.45L22.3675 31ZM25.1701 32.38C25.1701 32.5467 25.2601 32.68 25.4401 32.78C25.6268 32.8733 25.8501 32.9567 26.1101 33.03C26.3768 33.0967 26.6434 33.1767 26.9101 33.27C27.1768 33.3633 27.4001 33.5233 27.5801 33.75C27.7668 33.97 27.8601 34.25 27.8601 34.59C27.8601 35.07 27.6734 35.4467 27.3001 35.72C26.9334 35.9933 26.4701 36.13 25.9101 36.13C25.4168 36.13 24.9934 36.0267 24.6401 35.82C24.2868 35.6133 24.0301 35.3267 23.8701 34.96L24.8001 34.42C24.9734 34.9 25.3434 35.14 25.9101 35.14C26.4768 35.14 26.7601 34.9533 26.7601 34.58C26.7601 34.42 26.6668 34.29 26.4801 34.19C26.3001 34.09 26.0768 34.0067 25.8101 33.94C25.5501 33.8667 25.2868 33.7833 25.0201 33.69C24.7534 33.5967 24.5268 33.4433 24.3401 33.23C24.1601 33.01 24.0701 32.7333 24.0701 32.4C24.0701 31.94 24.2434 31.57 24.5901 31.29C24.9434 31.01 25.3801 30.87 25.9001 30.87C26.3134 30.87 26.6801 30.9633 27.0001 31.15C27.3268 31.33 27.5768 31.5833 27.7501 31.91L26.8401 32.42C26.6668 32.04 26.3534 31.85 25.9001 31.85C25.6934 31.85 25.5201 31.8967 25.3801 31.99C25.2401 32.0767 25.1701 32.2067 25.1701 32.38ZM29.7325 33.96C29.8125 34.34 29.9959 34.6333 30.2825 34.84C30.5692 35.04 30.9192 35.14 31.3325 35.14C31.9059 35.14 32.3359 34.9333 32.6225 34.52L33.5125 35.04C33.0192 35.7667 32.2892 36.13 31.3225 36.13C30.5092 36.13 29.8525 35.8833 29.3525 35.39C28.8525 34.89 28.6025 34.26 28.6025 33.5C28.6025 32.7533 28.8492 32.13 29.3425 31.63C29.8359 31.1233 30.4692 30.87 31.2425 30.87C31.9759 30.87 32.5759 31.1267 33.0425 31.64C33.5159 32.1533 33.7525 32.7767 33.7525 33.51C33.7525 33.6233 33.7392 33.7733 33.7125 33.96H29.7325ZM29.7225 33.08H32.6625C32.5892 32.6733 32.4192 32.3667 32.1525 32.16C31.8925 31.9533 31.5859 31.85 31.2325 31.85C30.8325 31.85 30.4992 31.96 30.2325 32.18C29.9659 32.4 29.7959 32.7 29.7225 33.08ZM35.9829 31.84C36.2562 31.22 36.7695 30.91 37.5229 30.91V32.08C37.1095 32.0533 36.7495 32.1533 36.4429 32.38C36.1362 32.6 35.9829 32.9667 35.9829 33.48V36H34.9029V31H35.9829V31.84Z" fill="#0BB6E3"/>
<path d="M22.6053 9.99997C22.6053 9.34853 22.582 8.71899 22.5384 8.11431C21.8231 7.97712 21.2439 7.452 21.0299 6.76685H15.5972C15.4676 7.76489 15.3948 8.8481 15.3948 9.99997C15.3948 10.7066 15.4224 11.3872 15.4734 12.0384C16.1833 12.179 16.7573 12.7023 16.9701 13.3838H22.383C22.525 12.3445 22.6053 11.21 22.6053 9.99997Z" fill="#0BB6E3"/>
<path d="M23.1178 4.2229C23.9076 4.30618 24.5598 4.85817 24.7899 5.59493H27.9758C26.6923 2.99017 24.3082 1.02157 21.4341 0.300049C21.8309 0.832002 22.1926 1.50114 22.5084 2.2988C22.7422 2.88942 22.9459 3.53481 23.1178 4.2229Z" fill="#0BB6E3"/>
<path d="M14.3083 12.1629C14.2519 11.4579 14.2229 10.7343 14.2229 9.99997C14.2229 8.88853 14.2893 7.80153 14.417 6.76685H9.5366C9.18902 7.78149 9 8.86903 9 9.99997C9 11.1871 9.2084 12.3264 9.5898 13.3838H13.2102C13.3814 12.8354 13.7866 12.3895 14.3083 12.1629Z" fill="#0BB6E3"/>
<path d="M14.9217 15.9311C14.1142 15.8623 13.4441 15.3046 13.2101 14.5557H10.0994C11.3996 17.0857 13.7474 18.9923 16.5659 19.6998C16.1691 19.1679 15.8074 18.4987 15.4916 17.7011C15.2753 17.1548 15.085 16.5614 14.9217 15.9311Z" fill="#0BB6E3"/>
<path d="M15.782 5.595H21.03C21.1833 5.10414 21.524 4.69527 21.9679 4.45238C21.2665 1.68797 20.0933 0 19 0C17.7634 0 16.4245 2.16031 15.782 5.595Z" fill="#0BB6E3"/>
<path d="M13.4737 2.0604C13.4737 3.1461 12.5904 4.02942 11.5047 4.02942C11.3401 4.02942 11.1804 4.00884 11.0275 3.97063C10.6438 4.47673 10.3073 5.02032 10.0242 5.59489H14.5917C14.8051 4.38384 15.108 3.26782 15.4916 2.2988C15.8074 1.50114 16.1691 0.832002 16.5659 0.300049C15.4354 0.583838 14.3806 1.06036 13.4388 1.6929C13.4614 1.81204 13.4737 1.93478 13.4737 2.0604Z" fill="#0BB6E3"/>
<path d="M24.5263 17.9395C24.5263 16.8537 25.4096 15.9704 26.4953 15.9704C26.6599 15.9704 26.8196 15.991 26.9725 16.0292C27.3226 15.5675 27.6338 15.0748 27.9006 14.5557H23.3809C23.1692 15.7086 22.8761 16.7725 22.5084 17.7011C22.1926 18.4987 21.8309 19.1679 21.4341 19.6998C22.5646 19.416 23.6194 18.9395 24.5612 18.3069C24.5386 18.1878 24.5263 18.0651 24.5263 17.9395Z" fill="#0BB6E3"/>
<path d="M22.1892 14.5557H16.97C16.8207 15.0338 16.4933 15.4337 16.0662 15.6787C16.771 18.365 17.9241 20 18.9999 20C20.2184 20 21.5361 17.9028 22.1892 14.5557Z" fill="#0BB6E3"/>
<path d="M28.4101 13.3838C28.7915 12.3264 28.9999 11.1871 28.9999 9.99997C28.9999 8.86903 28.8109 7.78149 28.4633 6.76685H24.7898C24.6198 7.3113 24.219 7.75454 23.7027 7.98267C23.7517 8.64161 23.7771 9.3161 23.7771 9.99997C23.7771 11.1654 23.7042 12.3042 23.564 13.3838H28.4101Z" fill="#0BB6E3"/>
<path d="M22.9099 6.97809C23.3495 6.97809 23.7071 6.62051 23.7071 6.18094C23.7071 5.74137 23.3495 5.38379 22.9099 5.38379C22.4704 5.38379 22.1128 5.74137 22.1128 6.18094C22.1128 6.62051 22.4704 6.97809 22.9099 6.97809Z" fill="#0BB6E3"/>
<path d="M15.0901 14.7667C15.5304 14.7667 15.8873 14.4098 15.8873 13.9695C15.8873 13.5293 15.5304 13.1724 15.0901 13.1724C14.6499 13.1724 14.293 13.5293 14.293 13.9695C14.293 14.4098 14.6499 14.7667 15.0901 14.7667Z" fill="#0BB6E3"/>
<path d="M11.5047 2.85748C11.9449 2.85748 12.3018 2.50059 12.3018 2.06033C12.3018 1.62008 11.9449 1.26318 11.5047 1.26318C11.0644 1.26318 10.7075 1.62008 10.7075 2.06033C10.7075 2.50059 11.0644 2.85748 11.5047 2.85748Z" fill="#0BB6E3"/>
<path d="M26.4954 17.1421C26.0558 17.1421 25.6982 17.4997 25.6982 17.9392C25.6982 18.3788 26.0558 18.7364 26.4954 18.7364C26.9349 18.7364 27.2925 18.3788 27.2925 17.9392C27.2925 17.4997 26.9349 17.1421 26.4954 17.1421Z" fill="#0BB6E3"/>
</svg>
