<svg width="246" height="64" viewBox="0 0 246 64" fill="none" xmlns="http://www.w3.org/2000/svg">
<g clip-path="url(#clip0_1547_2365)">
<path d="M100.413 20.3504V51.4406H95.3196L79.9929 28.2573V51.4406H74.899V20.3504H79.9928L95.3195 43.4894V20.3504H100.413Z" fill="white"/>
<path d="M117.707 51.8427C110.648 51.8427 105.42 46.8397 105.42 39.1117C105.42 31.3837 110.424 26.4258 117.707 26.4258C124.722 26.4258 129.682 31.2943 129.682 38.5308C129.689 39.3682 129.629 40.2048 129.503 41.0326H110.693C111.049 45.0977 113.954 47.5545 117.707 47.5545C120.835 47.5545 122.578 46.0356 123.516 44.1147H129.012C127.627 48.403 123.74 51.8427 117.707 51.8427ZM110.736 36.9232H124.366C124.275 33.1258 121.282 30.7141 117.484 30.7141C114.044 30.7141 111.273 33.037 110.736 36.9232Z" fill="white"/>
<path d="M135.493 30.9817H132.588V26.8279H135.493V20.7081H140.632V26.8279H146.619V30.9817H140.632V44.6062C140.632 46.4377 141.346 47.1968 143.491 47.1968H146.619V51.4406H142.597C138.219 51.4406 135.493 49.6092 135.493 44.6062L135.493 30.9817Z" fill="white"/>
<path d="M173.608 51.4407H168.514V48.4924C167.629 49.5578 166.514 50.4088 165.253 50.9813C163.991 51.5537 162.616 51.8329 161.231 51.7977C155.467 51.7977 151.089 48.1798 151.089 41.3002V26.8279H156.137V40.5412C156.137 45.0526 158.596 47.3756 162.303 47.3756C166.058 47.3756 168.514 45.0526 168.514 40.5412V26.8279H173.608V51.4407Z" fill="white"/>
<path d="M193.986 26.4258C200.51 26.4258 205.559 31.4288 205.559 39.0223C205.559 46.6165 200.465 51.8427 193.986 51.8427C192.345 51.9001 190.712 51.57 189.222 50.8793C187.731 50.1886 186.425 49.1567 185.407 47.8671V51.4406H180.314V18.3851H185.407V30.4908C186.419 29.1886 187.722 28.1422 189.212 27.4361C190.702 26.73 192.338 26.3839 193.986 26.4258ZM192.869 30.8478C189.071 30.8478 185.407 33.8405 185.407 39.1117C185.407 44.4273 189.071 47.42 192.869 47.42C196.711 47.42 200.375 44.3379 200.375 39.0223C200.375 33.7067 196.711 30.8478 192.869 30.8478Z" fill="white"/>
<path d="M209.94 20.3061C209.944 19.6673 210.137 19.0441 210.495 18.5148C210.853 17.9855 211.359 17.5737 211.95 17.3312C212.541 17.0887 213.191 17.0264 213.817 17.152C214.444 17.2776 215.019 17.5856 215.471 18.0372C215.923 18.4888 216.231 19.0639 216.357 19.6902C216.482 20.3164 216.42 20.9659 216.178 21.5569C215.935 22.1479 215.524 22.654 214.994 23.0117C214.465 23.3693 213.841 23.5626 213.202 23.567C212.773 23.5722 212.346 23.4914 211.948 23.3294C211.55 23.1673 211.188 22.9274 210.884 22.6235C210.58 22.3197 210.34 21.9581 210.178 21.5602C210.016 21.1622 209.935 20.7358 209.94 20.3061ZM210.61 26.8279H215.704V51.4407H210.61V26.8279Z" fill="white"/>
<path d="M232.327 26.4258C233.961 26.3769 235.584 26.7109 237.066 27.4013C238.548 28.0916 239.847 29.1191 240.861 30.4014V26.8279H246V51.4406H240.861V47.7777C239.841 49.0816 238.53 50.1285 237.032 50.8344C235.534 51.5403 233.892 51.8857 232.237 51.8427C225.847 51.8427 220.71 46.6165 220.71 39.0223C220.709 31.4288 225.847 26.4258 232.327 26.4258ZM233.399 30.8479C229.601 30.8479 225.937 33.7067 225.937 39.0223C225.937 44.3379 229.601 47.42 233.399 47.42C237.242 47.42 240.861 44.4273 240.861 39.1117C240.861 33.8405 237.242 30.8479 233.399 30.8479Z" fill="white"/>
<path d="M3.85836 42.6002C3.8109 37.0123 4.93737 31.4767 7.16486 26.3514C9.44064 21.1151 12.7735 16.4051 16.9548 12.5164L17.755 11.7959C18.0242 11.5584 18.284 11.3084 18.5684 11.0888L19.4076 10.4112C19.6897 10.1882 19.963 9.95237 20.2581 9.74635L21.1313 9.11014C21.4251 8.90174 21.709 8.67731 22.0157 8.48801L22.9234 7.89933L23.3782 7.60546L23.6062 7.45938L23.8401 7.32337L24.7772 6.78017L25.2467 6.50916L25.4817 6.37375C25.5609 6.33035 25.6418 6.29041 25.7218 6.24857L26.688 5.757L27.172 5.51176C27.3337 5.43073 27.4936 5.34547 27.6598 5.27489C28.32 4.98131 28.9786 4.68026 29.6442 4.3961C30.3175 4.13288 30.9949 3.87797 31.6719 3.62055C32.3293 3.37086 33.0399 3.29479 33.7353 3.39963C34.4306 3.50447 35.0872 3.78673 35.6416 4.21912C36.1961 4.65152 36.6297 5.21945 36.9006 5.86818C37.1716 6.5169 37.2707 7.22454 37.1884 7.92271L37.1513 8.21769L36.8092 10.9988L36.4545 13.7781C36.2212 15.6314 35.9723 17.4824 35.726 19.3338C35.4837 21.1858 35.2188 23.0345 34.9663 24.885L34.1759 30.4317L33.3545 35.9739L32.5008 41.5113C32.3039 42.7451 32.1107 43.9794 31.9131 45.2131C33.9592 44.1381 35.9025 42.8781 37.7189 41.4491C41.5141 38.4552 44.7203 34.783 47.1747 30.6191L48.0699 29.0189C48.3418 28.4715 48.6228 27.9256 48.8922 27.3729C49.1402 26.812 49.4015 26.2532 49.6439 25.6858L49.9819 24.8243L50.1539 24.3931C50.2108 24.2491 50.2721 24.1062 50.3188 23.9591C51.174 21.6099 51.8128 19.1876 52.2276 16.7224C52.6058 14.4649 52.8 12.1805 52.8083 9.89158C47.7661 4.37204 40.865 0.905231 33.4257 0.154767C25.9865 -0.595697 18.5316 1.42292 12.4881 5.82415C6.44455 10.2254 2.23686 16.7001 0.670338 24.0091C-0.896189 31.318 0.288501 38.9479 3.99766 45.4381C3.91711 44.4966 3.86889 43.55 3.85836 42.6002Z" fill="url(#paint0_linear_1547_2365)"/>
<path d="M56.2077 46.3644C59.3063 41.3556 60.8829 35.5549 60.746 29.6673C60.6091 23.7796 58.7645 18.0584 55.4364 13.1991C55.5752 14.4493 55.6553 15.7108 55.6696 16.9777C55.719 22.5671 54.5932 28.1046 52.3651 33.2313C48.916 41.1527 43.0862 47.8045 35.6844 52.2636L34.7472 52.8071L34.2777 53.0784L34.0424 53.2133C33.963 53.2563 33.8819 53.296 33.8017 53.3375L32.8354 53.8293L32.3513 54.0746C32.1896 54.1557 32.0297 54.241 31.8633 54.3116C31.2031 54.6054 30.5444 54.9067 29.8787 55.191L27.85 55.9651C27.1915 56.2161 26.4794 56.2931 25.7825 56.1887C25.0856 56.0842 24.4274 55.8017 23.8715 55.3686C23.3157 54.9356 22.8809 54.3665 22.6094 53.7164C22.3378 53.0664 22.2385 52.3572 22.3211 51.6576L22.3588 51.3581L22.7015 48.5771L23.0569 45.798C23.2896 43.9446 23.543 42.0942 23.7872 40.2425L24.549 34.6916L25.3431 29.1456L26.1683 23.6039C26.4543 21.7583 26.7279 19.9108 27.0241 18.0667C27.2207 16.826 27.4185 15.5854 27.6175 14.345C25.5642 15.4219 23.6141 16.6851 21.7919 18.1186C17.9951 21.1131 14.7878 24.7868 12.3334 28.9526L11.4378 30.5533C11.1658 31.1008 10.8858 31.6474 10.6154 32.2C10.3674 32.7611 10.1065 33.3201 9.86417 33.8878L9.52591 34.7495L9.35401 35.1808C9.29723 35.3249 9.23602 35.4679 9.18932 35.6151C8.33478 37.9652 7.69656 40.3883 7.28257 42.8542C6.92058 45.0185 6.72784 47.2077 6.70605 49.4019C7.06904 49.8523 7.44638 50.2952 7.83809 50.7305C12.254 55.615 18.1376 58.9332 24.6031 60.1857C31.0686 61.4382 37.7661 60.5571 43.6875 57.6752L60.7767 64L56.2077 46.3644Z" fill="url(#paint1_linear_1547_2365)"/>
</g>
<defs>
<linearGradient id="paint0_linear_1547_2365" x1="9.79041" y1="-6.58798" x2="51.4722" y2="70.1819" gradientUnits="userSpaceOnUse">
<stop offset="0.24302" stop-color="#0BB6E3"/>
<stop offset="1" stop-color="#2561F2"/>
</linearGradient>
<linearGradient id="paint1_linear_1547_2365" x1="10.4017" y1="-6.91989" x2="52.0835" y2="69.85" gradientUnits="userSpaceOnUse">
<stop offset="0.24302" stop-color="#0BB6E3"/>
<stop offset="1" stop-color="#2561F2"/>
</linearGradient>
<clipPath id="clip0_1547_2365">
<rect width="246" height="64" fill="white"/>
</clipPath>
</defs>
</svg>
