<svg width="43" height="42" viewBox="0 0 43 42" fill="none" xmlns="http://www.w3.org/2000/svg">
<path d="M7.83613 32V39H6.68613V34.01L4.55613 37.53H4.41613L2.28613 34V39H1.13613V32H2.37613L4.48613 35.5L6.60613 32H7.83613ZM10.2118 36.96C10.2918 37.34 10.4752 37.6333 10.7618 37.84C11.0485 38.04 11.3985 38.14 11.8118 38.14C12.3852 38.14 12.8152 37.9333 13.1018 37.52L13.9918 38.04C13.4985 38.7667 12.7685 39.13 11.8018 39.13C10.9885 39.13 10.3318 38.8833 9.83184 38.39C9.33184 37.89 9.08184 37.26 9.08184 36.5C9.08184 35.7533 9.3285 35.13 9.82184 34.63C10.3152 34.1233 10.9485 33.87 11.7218 33.87C12.4552 33.87 13.0552 34.1267 13.5218 34.64C13.9952 35.1533 14.2318 35.7767 14.2318 36.51C14.2318 36.6233 14.2185 36.7733 14.1918 36.96H10.2118ZM10.2018 36.08H13.1418C13.0685 35.6733 12.8985 35.3667 12.6318 35.16C12.3718 34.9533 12.0652 34.85 11.7118 34.85C11.3118 34.85 10.9785 34.96 10.7118 35.18C10.4452 35.4 10.2752 35.7 10.2018 36.08ZM16.1568 35.38C16.1568 35.5467 16.2468 35.68 16.4268 35.78C16.6135 35.8733 16.8368 35.9567 17.0968 36.03C17.3635 36.0967 17.6302 36.1767 17.8968 36.27C18.1635 36.3633 18.3868 36.5233 18.5668 36.75C18.7535 36.97 18.8468 37.25 18.8468 37.59C18.8468 38.07 18.6602 38.4467 18.2868 38.72C17.9202 38.9933 17.4568 39.13 16.8968 39.13C16.4035 39.13 15.9802 39.0267 15.6268 38.82C15.2735 38.6133 15.0168 38.3267 14.8568 37.96L15.7868 37.42C15.9602 37.9 16.3302 38.14 16.8968 38.14C17.4635 38.14 17.7468 37.9533 17.7468 37.58C17.7468 37.42 17.6535 37.29 17.4668 37.19C17.2868 37.09 17.0635 37.0067 16.7968 36.94C16.5368 36.8667 16.2735 36.7833 16.0068 36.69C15.7402 36.5967 15.5135 36.4433 15.3268 36.23C15.1468 36.01 15.0568 35.7333 15.0568 35.4C15.0568 34.94 15.2302 34.57 15.5768 34.29C15.9302 34.01 16.3668 33.87 16.8868 33.87C17.3002 33.87 17.6668 33.9633 17.9868 34.15C18.3135 34.33 18.5635 34.5833 18.7368 34.91L17.8268 35.42C17.6535 35.04 17.3402 34.85 16.8868 34.85C16.6802 34.85 16.5068 34.8967 16.3668 34.99C16.2268 35.0767 16.1568 35.2067 16.1568 35.38ZM20.6635 35.38C20.6635 35.5467 20.7535 35.68 20.9335 35.78C21.1201 35.8733 21.3435 35.9567 21.6035 36.03C21.8701 36.0967 22.1368 36.1767 22.4035 36.27C22.6701 36.3633 22.8935 36.5233 23.0735 36.75C23.2601 36.97 23.3535 37.25 23.3535 37.59C23.3535 38.07 23.1668 38.4467 22.7935 38.72C22.4268 38.9933 21.9635 39.13 21.4035 39.13C20.9101 39.13 20.4868 39.0267 20.1335 38.82C19.7801 38.6133 19.5235 38.3267 19.3635 37.96L20.2935 37.42C20.4668 37.9 20.8368 38.14 21.4035 38.14C21.9701 38.14 22.2535 37.9533 22.2535 37.58C22.2535 37.42 22.1601 37.29 21.9735 37.19C21.7935 37.09 21.5701 37.0067 21.3035 36.94C21.0435 36.8667 20.7801 36.7833 20.5135 36.69C20.2468 36.5967 20.0201 36.4433 19.8335 36.23C19.6535 36.01 19.5635 35.7333 19.5635 35.4C19.5635 34.94 19.7368 34.57 20.0835 34.29C20.4368 34.01 20.8735 33.87 21.3935 33.87C21.8068 33.87 22.1735 33.9633 22.4935 34.15C22.8201 34.33 23.0701 34.5833 23.2435 34.91L22.3335 35.42C22.1601 35.04 21.8468 34.85 21.3935 34.85C21.1868 34.85 21.0135 34.8967 20.8735 34.99C20.7335 35.0767 20.6635 35.2067 20.6635 35.38ZM28.3359 34H29.4159V39H28.3359V38.28C27.9292 38.8467 27.3459 39.13 26.5859 39.13C25.8992 39.13 25.3126 38.8767 24.8259 38.37C24.3392 37.8567 24.0959 37.2333 24.0959 36.5C24.0959 35.76 24.3392 35.1367 24.8259 34.63C25.3126 34.1233 25.8992 33.87 26.5859 33.87C27.3459 33.87 27.9292 34.15 28.3359 34.71V34ZM25.6259 37.65C25.9259 37.95 26.3026 38.1 26.7559 38.1C27.2092 38.1 27.5859 37.95 27.8859 37.65C28.1859 37.3433 28.3359 36.96 28.3359 36.5C28.3359 36.04 28.1859 35.66 27.8859 35.36C27.5859 35.0533 27.2092 34.9 26.7559 34.9C26.3026 34.9 25.9259 35.0533 25.6259 35.36C25.3259 35.66 25.1759 36.04 25.1759 36.5C25.1759 36.96 25.3259 37.3433 25.6259 37.65ZM34.8547 34H35.9147V38.77C35.9147 39.53 35.6647 40.1133 35.1647 40.52C34.6647 40.9267 34.0581 41.13 33.3447 41.13C32.1914 41.13 31.4014 40.7267 30.9747 39.92L31.9047 39.38C32.1647 39.8933 32.6514 40.15 33.3647 40.15C33.8314 40.15 34.1947 40.0267 34.4547 39.78C34.7214 39.54 34.8547 39.2033 34.8547 38.77V38.16C34.4481 38.74 33.8681 39.03 33.1147 39.03C32.4081 39.03 31.8114 38.78 31.3247 38.28C30.8381 37.7733 30.5947 37.1633 30.5947 36.45C30.5947 35.7367 30.8381 35.13 31.3247 34.63C31.8114 34.1233 32.4081 33.87 33.1147 33.87C33.8681 33.87 34.4481 34.16 34.8547 34.74V34ZM32.1247 37.57C32.4314 37.87 32.8114 38.02 33.2647 38.02C33.7181 38.02 34.0947 37.87 34.3947 37.57C34.7014 37.27 34.8547 36.8967 34.8547 36.45C34.8547 36.0033 34.7014 35.63 34.3947 35.33C34.0947 35.03 33.7181 34.88 33.2647 34.88C32.8114 34.88 32.4314 35.03 32.1247 35.33C31.8247 35.63 31.6747 36.0033 31.6747 36.45C31.6747 36.8967 31.8247 37.27 32.1247 37.57ZM38.2236 36.96C38.3036 37.34 38.4869 37.6333 38.7736 37.84C39.0602 38.04 39.4102 38.14 39.8236 38.14C40.3969 38.14 40.8269 37.9333 41.1136 37.52L42.0036 38.04C41.5102 38.7667 40.7802 39.13 39.8136 39.13C39.0002 39.13 38.3436 38.8833 37.8436 38.39C37.3436 37.89 37.0936 37.26 37.0936 36.5C37.0936 35.7533 37.3402 35.13 37.8336 34.63C38.3269 34.1233 38.9602 33.87 39.7336 33.87C40.4669 33.87 41.0669 34.1267 41.5336 34.64C42.0069 35.1533 42.2436 35.7767 42.2436 36.51C42.2436 36.6233 42.2302 36.7733 42.2036 36.96H38.2236ZM38.2136 36.08H41.1536C41.0802 35.6733 40.9102 35.3667 40.6436 35.16C40.3836 34.9533 40.0769 34.85 39.7236 34.85C39.3236 34.85 38.9902 34.96 38.7236 35.18C38.4569 35.4 38.2869 35.7 38.2136 36.08Z" fill="#FCFCFC"/>
<path fill-rule="evenodd" clip-rule="evenodd" d="M30.4475 22.4575H28.8817C27.3201 22.4575 25.8281 21.8173 24.727 20.6878C23.5637 20.9937 22.2608 21.1603 21.0122 21.1603C13.8844 21.1603 10 16.7674 10 12.0662C10 7.39593 13.8438 3 21.0122 3C27.7787 3 32.0992 7.77721 32.0992 12.4781C32.0992 15.0262 30.8269 17.4567 28.2703 19.1345C28.3705 19.9768 28.7433 20.7533 29.3403 21.3503L30.4475 22.4575ZM17.5196 13.4575C18.0719 13.4575 18.5196 13.0098 18.5196 12.4575C18.5196 11.9052 18.0719 11.4575 17.5196 11.4575C16.9673 11.4575 16.5196 11.9052 16.5196 12.4575C16.5196 13.0098 16.9673 13.4575 17.5196 13.4575ZM22.5196 12.4575C22.5196 13.0098 22.0719 13.4575 21.5196 13.4575C20.9673 13.4575 20.5196 13.0098 20.5196 12.4575C20.5196 11.9052 20.9673 11.4575 21.5196 11.4575C22.0719 11.4575 22.5196 11.9052 22.5196 12.4575ZM25.5196 13.4575C26.0719 13.4575 26.5196 13.0098 26.5196 12.4575C26.5196 11.9052 26.0719 11.4575 25.5196 11.4575C24.9673 11.4575 24.5196 11.9052 24.5196 12.4575C24.5196 13.0098 24.9673 13.4575 25.5196 13.4575Z" fill="#FCFCFC"/>
<circle cx="31" cy="6" r="6" fill="#D71E28"/>
<path d="M31.4022 5.208C31.4022 5.63467 31.2902 6.01067 31.0662 6.336L29.2982 9H28.2422L29.5222 7.12H29.4262C28.8449 7.12 28.3675 6.944 27.9942 6.592C27.6262 6.23467 27.4422 5.77333 27.4422 5.208C27.4422 4.64267 27.6262 4.184 27.9942 3.832C28.3675 3.47467 28.8449 3.296 29.4262 3.296C30.0075 3.296 30.4822 3.47467 30.8502 3.832C31.2182 4.184 31.4022 4.64267 31.4022 5.208ZM28.3622 5.208C28.3622 5.51733 28.4609 5.768 28.6582 5.96C28.8609 6.152 29.1169 6.248 29.4262 6.248C29.7355 6.248 29.9889 6.15467 30.1862 5.968C30.3835 5.776 30.4822 5.52267 30.4822 5.208C30.4822 4.89333 30.3835 4.64267 30.1862 4.456C29.9889 4.264 29.7355 4.168 29.4262 4.168C29.1169 4.168 28.8609 4.264 28.6582 4.456C28.4609 4.64267 28.3622 4.89333 28.3622 5.208ZM35.5616 5.792V6.608H34.2096V7.96H33.3936V6.608H32.0416V5.792H33.3936V4.44H34.2096V5.792H35.5616Z" fill="white"/>
</svg>
