<svg width="26" height="26" viewBox="0 0 26 26" fill="none" xmlns="http://www.w3.org/2000/svg">
<path d="M12.9189 25.8378C20.0538 25.8378 25.8378 20.0538 25.8378 12.9189C25.8378 5.78399 20.0538 0 12.9189 0C5.78399 0 0 5.78399 0 12.9189C0 20.0538 5.78399 25.8378 12.9189 25.8378Z" fill="#CB2027"/>
<path d="M13.9616 17.2996C12.985 17.224 12.5746 16.7397 11.8087 16.2748C11.3877 18.4835 10.8732 20.6008 9.34937 21.7069C8.87842 18.3686 10.0398 15.8612 10.5791 13.1997C9.6598 11.6521 10.6897 8.53719 12.6287 9.30475C15.0152 10.2485 10.5625 15.059 13.5517 15.6599C16.6724 16.2872 17.9464 10.245 16.011 8.27972C13.2148 5.4423 7.87181 8.21524 8.52884 12.2771C8.68889 13.2701 9.71507 13.5716 8.93876 14.9418C7.14916 14.5455 6.61534 13.134 6.68397 11.2523C6.79474 8.17218 9.45162 6.01549 12.1166 5.71704C15.4869 5.33982 18.6502 6.95462 19.0868 10.1248C19.578 13.7029 17.5653 17.5777 13.9616 17.2996Z" fill="#F1F2F2"/>
</svg>
