<svg width="34" height="34" viewBox="0 0 34 34" fill="none" xmlns="http://www.w3.org/2000/svg">
<circle cx="17" cy="17" r="17" fill="url(#paint0_linear_2069_3479)"/>
<path d="M9.54909 15.9267L15.5967 15.9267L15.5967 9.91041C15.5924 9.77324 15.6159 9.63662 15.6657 9.50874C15.7155 9.38086 15.7906 9.26435 15.8865 9.16621C16.0943 8.95845 16.3761 8.84173 16.6699 8.84173C16.9637 8.84173 17.2455 8.95845 17.4533 9.16621C17.5511 9.26042 17.6287 9.37365 17.6812 9.49892C17.7338 9.6242 17.7602 9.7589 17.7588 9.89474L17.7196 15.9502L23.8142 15.9502C24.0696 15.9474 24.3164 16.0427 24.5036 16.2165C24.7113 16.4243 24.828 16.7061 24.828 16.9999C24.828 17.2937 24.7113 17.5755 24.5036 17.7832C24.4079 17.8872 24.2916 17.9702 24.1621 18.0268C24.0327 18.0834 23.8928 18.1125 23.7515 18.1122L17.7431 18.0731L17.7431 24.105C17.7453 24.2396 17.7208 24.3732 17.671 24.4983C17.6213 24.6233 17.5473 24.7372 17.4533 24.8335C17.2455 25.0413 16.9637 25.158 16.6699 25.158C16.3761 25.158 16.0943 25.0413 15.8865 24.8335C15.7887 24.7393 15.7111 24.6261 15.6585 24.5008C15.606 24.3755 15.5796 24.2408 15.581 24.105L15.6202 18.0496L9.52559 18.0496C9.27017 18.0524 9.02341 17.957 8.83623 17.7832C8.62847 17.5755 8.51175 17.2937 8.51175 16.9999C8.51175 16.7061 8.62847 16.4243 8.83623 16.2165C9.02659 16.0308 9.28275 15.9267 9.54909 15.9267Z" fill="#FCFCFC"/>
<defs>
<linearGradient id="paint0_linear_2069_3479" x1="3.00333" y1="3.00333" x2="30.2905" y2="30.2905" gradientUnits="userSpaceOnUse">
<stop offset="0.24302" stop-color="#0BB6E3"/>
<stop offset="1" stop-color="#2561F2"/>
</linearGradient>
</defs>
</svg>
