<svg width="30" height="40" viewBox="0 0 30 40" fill="none" xmlns="http://www.w3.org/2000/svg">
<path d="M3.59543 30C4.25543 30 4.80543 30.22 5.24543 30.66C5.6921 31.1 5.91543 31.6467 5.91543 32.3C5.91543 32.9467 5.6921 33.4933 5.24543 33.94C4.80543 34.38 4.25543 34.6 3.59543 34.6H2.16543V37H1.01543V30H3.59543ZM3.59543 33.52C3.93543 33.52 4.21543 33.4067 4.43543 33.18C4.65543 32.9467 4.76543 32.6533 4.76543 32.3C4.76543 31.9467 4.65543 31.6567 4.43543 31.43C4.21543 31.1967 3.93543 31.08 3.59543 31.08H2.16543V33.52H3.59543ZM8.02621 32.84C8.29954 32.22 8.81288 31.91 9.56621 31.91V33.08C9.15288 33.0533 8.79288 33.1533 8.48621 33.38C8.17954 33.6 8.02621 33.9667 8.02621 34.48V37H6.94621V32H8.02621V32.84ZM12.6898 37.13C11.9565 37.13 11.3331 36.8767 10.8198 36.37C10.3065 35.8633 10.0498 35.24 10.0498 34.5C10.0498 33.76 10.3065 33.1367 10.8198 32.63C11.3331 32.1233 11.9565 31.87 12.6898 31.87C13.4298 31.87 14.0531 32.1233 14.5598 32.63C15.0731 33.1367 15.3298 33.76 15.3298 34.5C15.3298 35.24 15.0731 35.8633 14.5598 36.37C14.0531 36.8767 13.4298 37.13 12.6898 37.13ZM11.5798 35.63C11.8798 35.93 12.2498 36.08 12.6898 36.08C13.1298 36.08 13.4998 35.93 13.7998 35.63C14.0998 35.33 14.2498 34.9533 14.2498 34.5C14.2498 34.0467 14.0998 33.67 13.7998 33.37C13.4998 33.07 13.1298 32.92 12.6898 32.92C12.2498 32.92 11.8798 33.07 11.5798 33.37C11.2798 33.67 11.1298 34.0467 11.1298 34.5C11.1298 34.9533 11.2798 35.33 11.5798 35.63ZM20.5106 32V37H19.4306V33.04H17.7706V37H16.6906V33.04H15.9306V32H16.6906V31.9C16.6906 30.5467 17.4439 29.87 18.9506 29.87C19.3039 29.87 19.6739 29.9133 20.0606 30V30.99C19.7073 30.9367 19.3373 30.91 18.9506 30.91C18.5506 30.91 18.2539 30.9833 18.0606 31.13C17.8673 31.2767 17.7706 31.5333 17.7706 31.9V32H20.5106ZM21.9603 37V29.7H23.0403V37H21.9603ZM25.3443 34.96C25.4243 35.34 25.6076 35.6333 25.8943 35.84C26.1809 36.04 26.5309 36.14 26.9443 36.14C27.5176 36.14 27.9476 35.9333 28.2343 35.52L29.1243 36.04C28.6309 36.7667 27.9009 37.13 26.9343 37.13C26.1209 37.13 25.4643 36.8833 24.9643 36.39C24.4643 35.89 24.2143 35.26 24.2143 34.5C24.2143 33.7533 24.4609 33.13 24.9543 32.63C25.4476 32.1233 26.0809 31.87 26.8543 31.87C27.5876 31.87 28.1876 32.1267 28.6543 32.64C29.1276 33.1533 29.3643 33.7767 29.3643 34.51C29.3643 34.6233 29.3509 34.7733 29.3243 34.96H25.3443ZM25.3343 34.08H28.2743C28.2009 33.6733 28.0309 33.3667 27.7643 33.16C27.5043 32.9533 27.1976 32.85 26.8443 32.85C26.4443 32.85 26.1109 32.96 25.8443 33.18C25.5776 33.4 25.4076 33.7 25.3343 34.08Z" fill="#FCFCFC"/>
<path d="M15.6279 10.1157C17.0176 10.1157 18.221 9.61729 19.2042 8.63388C20.1875 7.65064 20.6859 6.44758 20.6859 5.0577C20.6859 3.66831 20.1875 2.46508 19.2041 1.48152C18.2207 0.498432 17.0174 0 15.6279 0C14.238 0 13.0349 0.498432 12.0517 1.48168C11.0684 2.46492 10.5698 3.66815 10.5698 5.0577C10.5698 6.44758 11.0684 7.6508 12.0518 8.63404C13.0352 9.61713 14.2385 10.1157 15.6279 10.1157Z" fill="#FCFCFC"/>
<path d="M24.4779 16.1479C24.4495 15.7387 24.3922 15.2923 24.3077 14.821C24.2225 14.3461 24.1127 13.8972 23.9814 13.4869C23.8457 13.0628 23.6611 12.644 23.4329 12.2426C23.1961 11.8261 22.918 11.4633 22.6059 11.1649C22.2795 10.8526 21.88 10.6015 21.4179 10.4184C20.9574 10.2362 20.4471 10.144 19.9013 10.144C19.6869 10.144 19.4796 10.2319 19.0792 10.4926C18.8328 10.6533 18.5446 10.8391 18.2229 11.0447C17.9478 11.22 17.5751 11.3842 17.1148 11.5329C16.6657 11.6782 16.2097 11.7519 15.7597 11.7519C15.3096 11.7519 14.8538 11.6782 14.4043 11.5329C13.9444 11.3844 13.5718 11.2201 13.297 11.0449C12.9783 10.8412 12.6899 10.6554 12.4398 10.4924C12.0399 10.2318 11.8325 10.1438 11.6181 10.1438C11.0721 10.1438 10.5619 10.2362 10.1016 10.4186C9.63989 10.6014 9.24015 10.8524 8.91347 11.165C8.60153 11.4637 8.32323 11.8262 8.08675 12.2426C7.85876 12.644 7.67419 13.0626 7.53833 13.487C7.40711 13.8973 7.29736 14.3461 7.21213 14.821C7.12769 15.2917 7.07034 15.7382 7.04198 16.1484C7.0141 16.5502 7 16.9672 7 17.3884C7 18.4846 7.34847 19.3721 8.03564 20.0266C8.71432 20.6724 9.61233 21 10.7044 21H20.816C21.908 21 22.8057 20.6726 23.4845 20.0266C24.1719 19.3726 24.5203 18.485 24.5203 17.3883C24.5202 16.9652 24.5059 16.5478 24.4779 16.1479Z" fill="#FCFCFC"/>
</svg>
