<svg width="375" height="812" viewBox="0 0 375 812" fill="none" xmlns="http://www.w3.org/2000/svg">
<g clip-path="url(#clip0_2_13828)">
<rect width="375" height="812" rx="34" fill="white"/>
<g style="mix-blend-mode:multiply">
<rect width="375" height="812" fill="#021232"/>
</g>
<g opacity="0.1" filter="url(#filter0_f_2_13828)">
<circle cx="-11" cy="129" r="180" fill="url(#paint0_linear_2_13828)"/>
</g>
<g opacity="0.1" filter="url(#filter1_f_2_13828)">
<circle cx="276" cy="730" r="180" fill="url(#paint1_linear_2_13828)"/>
</g>
<rect opacity="0.35" x="336.5" y="17.8333" width="21" height="10.3333" rx="2.16667" stroke="#FCFCFC"/>
<path opacity="0.4" d="M359 21V25C359.805 24.6612 360.328 23.8731 360.328 23C360.328 22.1269 359.805 21.3388 359 21Z" fill="#FCFCFC"/>
<rect x="338" y="19.3333" width="18" height="7.33333" rx="1.33333" fill="#FCFCFC"/>
<path fill-rule="evenodd" clip-rule="evenodd" d="M323.33 19.608C325.546 19.6081 327.677 20.4595 329.283 21.9863C329.404 22.1042 329.598 22.1027 329.717 21.983L330.873 20.8163C330.933 20.7556 330.967 20.6734 330.966 20.5878C330.966 20.5022 330.931 20.4203 330.87 20.3603C326.655 16.3208 320.005 16.3208 315.79 20.3603C315.729 20.4203 315.694 20.5021 315.694 20.5877C315.693 20.6733 315.727 20.7556 315.787 20.8163L316.943 21.983C317.062 22.1029 317.256 22.1044 317.377 21.9863C318.983 20.4594 321.114 19.608 323.33 19.608ZM323.33 23.4037C324.548 23.4036 325.722 23.8561 326.624 24.6733C326.746 24.7893 326.939 24.7868 327.058 24.6677L328.212 23.501C328.273 23.4398 328.307 23.3568 328.306 23.2705C328.305 23.1843 328.27 23.1019 328.208 23.042C325.459 20.4856 321.204 20.4856 318.455 23.042C318.393 23.1019 318.358 23.1843 318.357 23.2706C318.356 23.3569 318.39 23.4399 318.451 23.501L319.605 24.6677C319.724 24.7868 319.917 24.7893 320.039 24.6733C320.941 23.8567 322.114 23.4042 323.33 23.4037ZM325.643 25.9575C325.645 26.044 325.611 26.1274 325.549 26.188L323.552 28.2037C323.493 28.2629 323.414 28.2962 323.33 28.2962C323.247 28.2962 323.167 28.2629 323.109 28.2037L321.111 26.188C321.049 26.1273 321.015 26.0439 321.017 25.9574C321.019 25.8709 321.056 25.789 321.121 25.731C322.396 24.6521 324.264 24.6521 325.54 25.731C325.604 25.789 325.642 25.871 325.643 25.9575Z" fill="#FCFCFC"/>
<path fill-rule="evenodd" clip-rule="evenodd" d="M309.667 17.6667H308.667C308.114 17.6667 307.667 18.1144 307.667 18.6667V27.3333C307.667 27.8856 308.114 28.3333 308.667 28.3333H309.667C310.219 28.3333 310.667 27.8856 310.667 27.3333V18.6667C310.667 18.1144 310.219 17.6667 309.667 17.6667ZM304 20H305C305.552 20 306 20.4477 306 21V27.3333C306 27.8856 305.552 28.3333 305 28.3333H304C303.448 28.3333 303 27.8856 303 27.3333V21C303 20.4477 303.448 20 304 20ZM300.333 22.3333H299.333C298.781 22.3333 298.333 22.781 298.333 23.3333V27.3333C298.333 27.8856 298.781 28.3333 299.333 28.3333H300.333C300.886 28.3333 301.333 27.8856 301.333 27.3333V23.3333C301.333 22.781 300.886 22.3333 300.333 22.3333ZM295.667 24.3333H294.667C294.114 24.3333 293.667 24.781 293.667 25.3333V27.3333C293.667 27.8856 294.114 28.3333 294.667 28.3333H295.667C296.219 28.3333 296.667 27.8856 296.667 27.3333V25.3333C296.667 24.781 296.219 24.3333 295.667 24.3333Z" fill="#FCFCFC"/>
<path d="M37.7764 29.2393C35.9718 29.2393 34.5977 28.1729 34.3038 26.5527H36.0606C36.2862 27.2979 36.9425 27.7627 37.7901 27.7627C39.2325 27.7627 40.087 26.416 40.087 24.1602C40.087 24.1602 40.0391 24.1602 40.0255 24.1602C40.0186 24.1602 39.9913 24.1602 39.9913 24.1602H39.9708C39.5059 25.0967 38.5694 25.6367 37.4141 25.6367C35.5343 25.6367 34.1671 24.2559 34.1671 22.3555C34.1671 20.332 35.6846 18.8896 37.8311 18.8896C39.2735 18.8896 40.4151 19.5732 41.0782 20.8379C41.5362 21.6514 41.7755 22.7041 41.7755 23.9551C41.7755 27.2773 40.2852 29.2393 37.7764 29.2393ZM37.838 24.2354C38.9659 24.2354 39.793 23.4287 39.793 22.3281C39.793 21.2139 38.9454 20.3594 37.8448 20.3594C36.7442 20.3594 35.8966 21.2002 35.8966 22.3008C35.8966 23.4287 36.7032 24.2354 37.838 24.2354ZM44.5921 27.9541C43.9496 27.9541 43.4984 27.4893 43.4984 26.874C43.4984 26.252 43.9496 25.7939 44.5921 25.7939C45.2416 25.7939 45.6859 26.252 45.6859 26.874C45.6859 27.4893 45.2416 27.9541 44.5921 27.9541ZM44.5921 22.8271C43.9496 22.8271 43.4984 22.3691 43.4984 21.7539C43.4984 21.1318 43.9496 20.6738 44.5921 20.6738C45.2416 20.6738 45.6859 21.1318 45.6859 21.7539C45.6859 22.3691 45.2416 22.8271 44.5921 22.8271ZM52.2213 29V27.1611H47.402V25.5889C48.2907 23.9551 49.6784 21.7607 51.4215 19.1357H53.9098V25.6709H55.2428V27.1611H53.9098V29H52.2213ZM49.0358 25.6094V25.7119H52.2487V20.5713H52.153C51.2096 21.9658 50.1842 23.5859 49.0358 25.6094ZM59.1669 29V20.9131H59.0507L56.5966 22.6357V20.9404L59.1738 19.1357H60.9306V29H59.1669Z" fill="#FCFCFC"/>
<rect x="24" y="732" width="326" height="50" rx="18" fill="url(#paint2_linear_2_13828)"/>
<path d="M159.028 756.236V756.992C159.028 758.392 158.58 759.526 157.684 760.394C156.788 761.262 155.631 761.696 154.212 761.696C152.7 761.696 151.445 761.206 150.446 760.226C149.457 759.237 148.962 758.033 148.962 756.614C148.962 755.186 149.452 753.977 150.432 752.988C151.421 751.999 152.644 751.504 154.1 751.504C155.015 751.504 155.85 751.714 156.606 752.134C157.362 752.545 157.95 753.095 158.37 753.786L156.718 754.738C156.485 754.337 156.13 754.01 155.654 753.758C155.187 753.506 154.665 753.38 154.086 753.38C153.153 753.38 152.383 753.688 151.776 754.304C151.179 754.911 150.88 755.681 150.88 756.614C150.88 757.538 151.183 758.303 151.79 758.91C152.406 759.507 153.218 759.806 154.226 759.806C154.973 759.806 155.589 759.643 156.074 759.316C156.569 758.98 156.905 758.523 157.082 757.944H154.114V756.236H159.028ZM161.844 758.742C162.087 759.619 162.745 760.058 163.818 760.058C164.509 760.058 165.032 759.825 165.386 759.358L166.842 760.198C166.152 761.197 165.134 761.696 163.79 761.696C162.633 761.696 161.704 761.346 161.004 760.646C160.304 759.946 159.954 759.064 159.954 758C159.954 756.945 160.3 756.068 160.99 755.368C161.681 754.659 162.568 754.304 163.65 754.304C164.677 754.304 165.522 754.659 166.184 755.368C166.856 756.077 167.192 756.955 167.192 758C167.192 758.233 167.169 758.481 167.122 758.742H161.844ZM161.816 757.342H165.386C165.284 756.866 165.069 756.511 164.742 756.278C164.425 756.045 164.061 755.928 163.65 755.928C163.165 755.928 162.764 756.054 162.446 756.306C162.129 756.549 161.919 756.894 161.816 757.342ZM172.252 756.236H170.67V759.148C170.67 759.391 170.731 759.568 170.852 759.68C170.973 759.792 171.151 759.857 171.384 759.876C171.617 759.885 171.907 759.881 172.252 759.862V761.5C171.011 761.64 170.133 761.523 169.62 761.15C169.116 760.777 168.864 760.109 168.864 759.148V756.236H167.646V754.5H168.864V753.086L170.67 752.54V754.5H172.252V756.236ZM180.565 761.696C179.594 761.696 178.777 761.481 178.115 761.052C177.452 760.613 176.985 760.021 176.715 759.274L178.367 758.308C178.749 759.307 179.501 759.806 180.621 759.806C181.162 759.806 181.559 759.708 181.811 759.512C182.063 759.316 182.189 759.069 182.189 758.77C182.189 758.425 182.035 758.159 181.727 757.972C181.419 757.776 180.868 757.566 180.075 757.342C179.636 757.211 179.263 757.081 178.955 756.95C178.656 756.819 178.353 756.647 178.045 756.432C177.746 756.208 177.517 755.928 177.359 755.592C177.2 755.256 177.121 754.864 177.121 754.416C177.121 753.529 177.433 752.825 178.059 752.302C178.693 751.77 179.454 751.504 180.341 751.504C181.134 751.504 181.829 751.7 182.427 752.092C183.033 752.475 183.505 753.011 183.841 753.702L182.217 754.64C181.825 753.8 181.199 753.38 180.341 753.38C179.939 753.38 179.622 753.473 179.389 753.66C179.165 753.837 179.053 754.071 179.053 754.36C179.053 754.668 179.179 754.92 179.431 755.116C179.692 755.303 180.187 755.508 180.915 755.732C181.213 755.825 181.437 755.9 181.587 755.956C181.745 756.003 181.955 756.082 182.217 756.194C182.487 756.297 182.693 756.395 182.833 756.488C182.982 756.581 183.15 756.707 183.337 756.866C183.523 757.025 183.663 757.188 183.757 757.356C183.859 757.524 183.943 757.729 184.009 757.972C184.083 758.205 184.121 758.462 184.121 758.742C184.121 759.647 183.789 760.366 183.127 760.898C182.473 761.43 181.619 761.696 180.565 761.696ZM189.096 756.236H187.514V759.148C187.514 759.391 187.574 759.568 187.696 759.68C187.817 759.792 187.994 759.857 188.228 759.876C188.461 759.885 188.75 759.881 189.096 759.862V761.5C187.854 761.64 186.977 761.523 186.464 761.15C185.96 760.777 185.708 760.109 185.708 759.148V756.236H184.49V754.5H185.708V753.086L187.514 752.54V754.5H189.096V756.236ZM195.47 754.5H197.276V761.5H195.47V760.674C194.929 761.355 194.168 761.696 193.188 761.696C192.255 761.696 191.452 761.341 190.78 760.632C190.118 759.913 189.786 759.036 189.786 758C189.786 756.964 190.118 756.091 190.78 755.382C191.452 754.663 192.255 754.304 193.188 754.304C194.168 754.304 194.929 754.645 195.47 755.326V754.5ZM192.138 759.428C192.502 759.792 192.964 759.974 193.524 759.974C194.084 759.974 194.546 759.792 194.91 759.428C195.284 759.055 195.47 758.579 195.47 758C195.47 757.421 195.284 756.95 194.91 756.586C194.546 756.213 194.084 756.026 193.524 756.026C192.964 756.026 192.502 756.213 192.138 756.586C191.774 756.95 191.592 757.421 191.592 758C191.592 758.579 191.774 759.055 192.138 759.428ZM200.72 755.704C200.888 755.256 201.163 754.92 201.546 754.696C201.938 754.472 202.372 754.36 202.848 754.36V756.376C202.297 756.311 201.803 756.423 201.364 756.712C200.935 757.001 200.72 757.482 200.72 758.154V761.5H198.914V754.5H200.72V755.704ZM208.1 756.236H206.518V759.148C206.518 759.391 206.578 759.568 206.7 759.68C206.821 759.792 206.998 759.857 207.232 759.876C207.465 759.885 207.754 759.881 208.1 759.862V761.5C206.858 761.64 205.981 761.523 205.468 761.15C204.964 760.777 204.712 760.109 204.712 759.148V756.236H203.494V754.5H204.712V753.086L206.518 752.54V754.5H208.1V756.236ZM210.68 758.742C210.923 759.619 211.581 760.058 212.654 760.058C213.345 760.058 213.867 759.825 214.222 759.358L215.678 760.198C214.987 761.197 213.97 761.696 212.626 761.696C211.469 761.696 210.54 761.346 209.84 760.646C209.14 759.946 208.79 759.064 208.79 758C208.79 756.945 209.135 756.068 209.826 755.368C210.517 754.659 211.403 754.304 212.486 754.304C213.513 754.304 214.357 754.659 215.02 755.368C215.692 756.077 216.028 756.955 216.028 758C216.028 758.233 216.005 758.481 215.958 758.742H210.68ZM210.652 757.342H214.222C214.119 756.866 213.905 756.511 213.578 756.278C213.261 756.045 212.897 755.928 212.486 755.928C212.001 755.928 211.599 756.054 211.282 756.306C210.965 756.549 210.755 756.894 210.652 757.342ZM222.54 751.7H224.346V761.5H222.54V760.674C222.008 761.355 221.252 761.696 220.272 761.696C219.33 761.696 218.522 761.341 217.85 760.632C217.188 759.913 216.856 759.036 216.856 758C216.856 756.964 217.188 756.091 217.85 755.382C218.522 754.663 219.33 754.304 220.272 754.304C221.252 754.304 222.008 754.645 222.54 755.326V751.7ZM219.208 759.428C219.582 759.792 220.048 759.974 220.608 759.974C221.168 759.974 221.63 759.792 221.994 759.428C222.358 759.055 222.54 758.579 222.54 758C222.54 757.421 222.358 756.95 221.994 756.586C221.63 756.213 221.168 756.026 220.608 756.026C220.048 756.026 219.582 756.213 219.208 756.586C218.844 756.95 218.662 757.421 218.662 758C218.662 758.579 218.844 759.055 219.208 759.428Z" fill="#FCFCFC"/>
<g clip-path="url(#clip1_2_13828)">
<path d="M164.413 383.35V414.441H159.32L143.993 391.257V414.441H138.899V383.35H143.993L159.319 406.489V383.35H164.413Z" fill="white"/>
<path d="M181.707 414.843C174.648 414.843 169.42 409.84 169.42 402.112C169.42 394.384 174.424 389.426 181.707 389.426C188.722 389.426 193.682 394.294 193.682 401.531C193.689 402.368 193.629 403.205 193.503 404.033H174.693C175.049 408.098 177.954 410.554 181.707 410.554C184.835 410.554 186.578 409.036 187.516 407.115H193.012C191.627 411.403 187.74 414.843 181.707 414.843ZM174.736 399.923H188.366C188.275 396.126 185.282 393.714 181.484 393.714C178.044 393.714 175.273 396.037 174.736 399.923Z" fill="white"/>
<path d="M199.493 393.982H196.588V389.828H199.493V383.708H204.632V389.828H210.619V393.982H204.632V407.606C204.632 409.438 205.346 410.197 207.491 410.197H210.619V414.441H206.597C202.219 414.441 199.493 412.609 199.493 407.606L199.493 393.982Z" fill="white"/>
<path d="M237.608 414.441H232.514V411.492C231.629 412.558 230.514 413.409 229.253 413.981C227.991 414.554 226.616 414.833 225.231 414.798C219.467 414.798 215.089 411.18 215.089 404.3V389.828H220.137V403.541C220.137 408.053 222.596 410.376 226.303 410.376C230.058 410.376 232.514 408.053 232.514 403.541V389.828H237.608V414.441Z" fill="white"/>
<path d="M257.986 389.426C264.51 389.426 269.559 394.429 269.559 402.022C269.559 409.617 264.465 414.843 257.986 414.843C256.345 414.9 254.712 414.57 253.222 413.879C251.731 413.189 250.425 412.157 249.407 410.867V414.441H244.314V381.385H249.407V393.491C250.419 392.189 251.722 391.142 253.212 390.436C254.703 389.73 256.338 389.384 257.986 389.426ZM256.869 393.848C253.071 393.848 249.407 396.841 249.407 402.112C249.407 407.427 253.071 410.42 256.869 410.42C260.711 410.42 264.375 407.338 264.375 402.022C264.375 396.707 260.711 393.848 256.869 393.848Z" fill="white"/>
<path d="M273.94 383.306C273.944 382.667 274.137 382.044 274.495 381.515C274.853 380.986 275.359 380.574 275.95 380.331C276.541 380.089 277.191 380.026 277.817 380.152C278.444 380.278 279.019 380.586 279.471 381.037C279.923 381.489 280.231 382.064 280.357 382.69C280.482 383.316 280.42 383.966 280.178 384.557C279.935 385.148 279.524 385.654 278.994 386.012C278.465 386.369 277.841 386.563 277.202 386.567C276.773 386.572 276.346 386.491 275.948 386.329C275.55 386.167 275.188 385.927 274.884 385.624C274.58 385.32 274.34 384.958 274.178 384.56C274.016 384.162 273.935 383.736 273.94 383.306ZM274.61 389.828H279.704V414.441H274.61V389.828Z" fill="white"/>
<path d="M296.327 389.426C297.961 389.377 299.584 389.711 301.066 390.401C302.548 391.092 303.847 392.119 304.861 393.401V389.828H310V414.441H304.861V410.778C303.841 412.082 302.53 413.128 301.032 413.834C299.534 414.54 297.892 414.886 296.237 414.843C289.847 414.843 284.71 409.617 284.71 402.022C284.709 394.429 289.847 389.426 296.327 389.426ZM297.399 393.848C293.601 393.848 289.937 396.707 289.937 402.022C289.937 407.338 293.601 410.42 297.399 410.42C301.242 410.42 304.861 407.427 304.861 402.112C304.861 396.84 301.242 393.848 297.399 393.848Z" fill="white"/>
<path style="mix-blend-mode:multiply" d="M91.6175 377.345V421.998L79.5575 416.805L91.6175 377.345Z" fill="url(#paint3_linear_2_13828)"/>
<path style="mix-blend-mode:multiply" d="M116.808 372.891C118.522 378.526 116.722 402.21 94.689 414.46L95.8968 407.948L116.808 372.891Z" fill="url(#paint4_linear_2_13828)"/>
<path style="mix-blend-mode:multiply" d="M70.706 412.402C68.9927 406.768 70.792 383.083 92.8253 370.833L91.6175 377.345L70.706 412.402Z" fill="url(#paint5_linear_2_13828)"/>
<path d="M67.8584 405.6C67.8109 400.012 68.9374 394.477 71.1649 389.351C73.4406 384.115 76.7735 379.405 80.9548 375.516L81.755 374.796C82.0242 374.558 82.284 374.308 82.5684 374.089L83.4076 373.411C83.6897 373.188 83.963 372.952 84.2581 372.746L85.1313 372.11C85.4251 371.902 85.709 371.677 86.0157 371.488L86.9234 370.899L87.3782 370.605L87.6062 370.459L87.8401 370.323L88.7772 369.78L89.2467 369.509L89.4817 369.374C89.5609 369.33 89.6418 369.29 89.7218 369.249L90.688 368.757L91.172 368.512C91.3337 368.431 91.4936 368.345 91.6598 368.275C92.32 367.981 92.9786 367.68 93.6442 367.396C94.3175 367.133 94.9949 366.878 95.6719 366.621C96.3293 366.371 97.0399 366.295 97.7353 366.4C98.4306 366.504 99.0872 366.787 99.6416 367.219C100.196 367.652 100.63 368.219 100.901 368.868C101.172 369.517 101.271 370.225 101.188 370.923L101.151 371.218L100.809 373.999L100.455 376.778C100.221 378.631 99.9723 380.482 99.726 382.334C99.4837 384.186 99.2188 386.034 98.9663 387.885L98.1759 393.432L97.3545 398.974L96.5008 404.511C96.3039 405.745 96.1107 406.979 95.9131 408.213C97.9592 407.138 99.9025 405.878 101.719 404.449C105.514 401.455 108.72 397.783 111.175 393.619L112.07 392.019C112.342 391.472 112.623 390.926 112.892 390.373C113.14 389.812 113.402 389.253 113.644 388.686L113.982 387.824L114.154 387.393C114.211 387.249 114.272 387.106 114.319 386.959C115.174 384.61 115.813 382.188 116.228 379.722C116.606 377.465 116.8 375.18 116.808 372.892C111.766 367.372 104.865 363.905 97.4257 363.155C89.9865 362.404 82.5316 364.423 76.4881 368.824C70.4446 373.225 66.2369 379.7 64.6703 387.009C63.1038 394.318 64.2885 401.948 67.9977 408.438C67.9171 407.497 67.8689 406.55 67.8584 405.6Z" fill="url(#paint6_linear_2_13828)"/>
<path d="M120.208 409.364C123.306 404.356 124.883 398.555 124.746 392.667C124.609 386.78 122.765 381.058 119.436 376.199C119.575 377.449 119.655 378.711 119.67 379.978C119.719 385.567 118.593 391.105 116.365 396.231C112.916 404.153 107.086 410.804 99.6845 415.264L98.7472 415.807L98.2777 416.078L98.0424 416.213C97.963 416.256 97.8819 416.296 97.8017 416.338L96.8354 416.829L96.3513 417.075C96.1896 417.156 96.0297 417.241 95.8634 417.312C95.2031 417.605 94.5444 417.907 93.8787 418.191L91.85 418.965C91.1915 419.216 90.4794 419.293 89.7825 419.189C89.0856 419.084 88.4274 418.802 87.8715 418.369C87.3157 417.936 86.881 417.367 86.6094 416.716C86.3378 416.066 86.2385 415.357 86.3211 414.658L86.3588 414.358L86.7016 411.577L87.0569 408.798C87.2896 406.945 87.543 405.094 87.7872 403.243L88.549 397.692L89.3432 392.146L90.1683 386.604C90.4543 384.758 90.7279 382.911 91.0241 381.067C91.2207 379.826 91.4185 378.585 91.6175 377.345C89.5642 378.422 87.6142 379.685 85.7919 381.119C81.9951 384.113 78.7879 387.787 76.3334 391.953L75.4378 393.553C75.1659 394.101 74.8858 394.647 74.6154 395.2C74.3674 395.761 74.1065 396.32 73.8642 396.888L73.5259 397.75L73.354 398.181C73.2972 398.325 73.236 398.468 73.1893 398.615C72.3348 400.965 71.6966 403.388 71.2826 405.854C70.9206 408.019 70.7279 410.208 70.7061 412.402C71.0691 412.852 71.4464 413.295 71.8381 413.73C76.254 418.615 82.1376 421.933 88.6031 423.186C95.0687 424.438 101.766 423.557 107.687 420.675L124.777 427L120.208 409.364Z" fill="url(#paint7_linear_2_13828)"/>
</g>
</g>
<defs>
<filter id="filter0_f_2_13828" x="-291" y="-151" width="560" height="560" filterUnits="userSpaceOnUse" color-interpolation-filters="sRGB">
<feFlood flood-opacity="0" result="BackgroundImageFix"/>
<feBlend mode="normal" in="SourceGraphic" in2="BackgroundImageFix" result="shape"/>
<feGaussianBlur stdDeviation="50" result="effect1_foregroundBlur_2_13828"/>
</filter>
<filter id="filter1_f_2_13828" x="-4" y="450" width="560" height="560" filterUnits="userSpaceOnUse" color-interpolation-filters="sRGB">
<feFlood flood-opacity="0" result="BackgroundImageFix"/>
<feBlend mode="normal" in="SourceGraphic" in2="BackgroundImageFix" result="shape"/>
<feGaussianBlur stdDeviation="50" result="effect1_foregroundBlur_2_13828"/>
</filter>
<linearGradient id="paint0_linear_2_13828" x1="-159.2" y1="-19.2" x2="129.723" y2="269.723" gradientUnits="userSpaceOnUse">
<stop offset="0.24302" stop-color="#0BB6E3"/>
<stop offset="1" stop-color="#2561F2"/>
</linearGradient>
<linearGradient id="paint1_linear_2_13828" x1="127.8" y1="581.8" x2="416.723" y2="870.723" gradientUnits="userSpaceOnUse">
<stop offset="0.24302" stop-color="#0BB6E3"/>
<stop offset="1" stop-color="#2561F2"/>
</linearGradient>
<linearGradient id="paint2_linear_2_13828" x1="52.7967" y1="736.417" x2="64.823" y2="814.829" gradientUnits="userSpaceOnUse">
<stop offset="0.24302" stop-color="#0BB6E3"/>
<stop offset="1" stop-color="#2561F2"/>
</linearGradient>
<linearGradient id="paint3_linear_2_13828" x1="85.7199" y1="406.511" x2="86.2998" y2="349.955" gradientUnits="userSpaceOnUse">
<stop stop-color="white"/>
<stop offset="1" stop-color="#CCCCCC"/>
</linearGradient>
<linearGradient id="paint4_linear_2_13828" x1="106.491" y1="411.288" x2="105.696" y2="386.352" gradientUnits="userSpaceOnUse">
<stop stop-color="white"/>
<stop offset="1" stop-color="#CCCCCC"/>
</linearGradient>
<linearGradient id="paint5_linear_2_13828" x1="81.0229" y1="374.006" x2="81.8184" y2="398.941" gradientUnits="userSpaceOnUse">
<stop stop-color="white"/>
<stop offset="1" stop-color="#CCCCCC"/>
</linearGradient>
<linearGradient id="paint6_linear_2_13828" x1="73.7904" y1="356.412" x2="115.472" y2="433.182" gradientUnits="userSpaceOnUse">
<stop offset="0.24302" stop-color="#0BB6E3"/>
<stop offset="1" stop-color="#2561F2"/>
</linearGradient>
<linearGradient id="paint7_linear_2_13828" x1="74.4017" y1="356.08" x2="116.084" y2="432.85" gradientUnits="userSpaceOnUse">
<stop offset="0.24302" stop-color="#0BB6E3"/>
<stop offset="1" stop-color="#2561F2"/>
</linearGradient>
<clipPath id="clip0_2_13828">
<rect width="375" height="812" rx="34" fill="white"/>
</clipPath>
<clipPath id="clip1_2_13828">
<rect width="246" height="64" fill="white" transform="translate(64 363)"/>
</clipPath>
</defs>
</svg>
