<svg width="28" height="22" viewBox="0 0 28 22" fill="none" xmlns="http://www.w3.org/2000/svg">
<path d="M8.80483 22C19.3713 22 25.1498 13.5356 25.1498 6.19483C25.1498 5.95454 25.1498 5.71537 25.1335 5.47733C26.2581 4.69063 27.2288 3.7165 28 2.60059C26.9517 3.05033 25.8395 3.34542 24.7007 3.47602C25.8996 2.78143 26.7968 1.68936 27.2253 0.402983C26.0979 1.0499 24.8645 1.50584 23.5783 1.7511C22.7121 0.860491 21.5665 0.270746 20.3188 0.0731284C19.0711 -0.12449 17.7908 0.0810355 16.676 0.657901C15.5613 1.23477 14.6742 2.15081 14.1521 3.26429C13.6299 4.37777 13.5019 5.62661 13.7877 6.81756C11.5038 6.70687 9.26954 6.13303 7.22989 5.13328C5.19023 4.13353 3.39078 2.73022 1.94833 1.01443C1.21391 2.2374 0.989077 3.68505 1.31962 5.06267C1.65015 6.4403 2.51121 7.64433 3.7275 8.42966C2.81317 8.40326 1.91884 8.16453 1.12 7.7336V7.80468C1.12036 9.08714 1.57943 10.33 2.41935 11.3225C3.25928 12.315 4.42836 12.9961 5.72833 13.2502C4.88267 13.4729 3.99547 13.5054 3.13483 13.3449C3.50187 14.4487 4.21646 15.414 5.1787 16.1058C6.14093 16.7975 7.30268 17.1812 8.5015 17.2032C7.31034 18.1081 5.94639 18.7772 4.48764 19.1721C3.02888 19.567 1.50394 19.68 0 19.5046C2.62681 21.1351 5.68338 22.0002 8.80483 21.9966" fill="#43C6EF"/>
</svg>
